<svg xmlns="http://www.w3.org/2000/svg" width="0" height="0" class="hidden">
  <symbol fill="none"  viewBox="0 0 24 24" id="bell">
    <path d="M14.8569 17.0817C16.7514 16.857 18.5783 16.4116 20.3111 15.7719C18.8743 14.177 17.9998 12.0656 17.9998 9.75V9.04919C17.9999 9.03281 18 9.01641 18 9C18 5.68629 15.3137 3 12 3C8.68629 3 6 5.68629 6 9L5.9998 9.75C5.9998 12.0656 5.12527 14.177 3.68848 15.7719C5.4214 16.4116 7.24843 16.857 9.14314 17.0818M14.8569 17.0817C13.92 17.1928 12.9666 17.25 11.9998 17.25C11.0332 17.25 10.0799 17.1929 9.14314 17.0818M14.8569 17.0817C14.9498 17.3711 15 17.6797 15 18C15 19.6569 13.6569 21 12 21C10.3431 21 9 19.6569 9 18C9 17.6797 9.05019 17.3712 9.14314 17.0818" stroke-width="1.5" stroke-linecap="round" stroke-linejoin="round"></path>
  </symbol>
  <symbol fill="none"  viewBox="0 0 24 24" id="calendar">
    <path d="M6.75 3V5.25M17.25 3V5.25M3 18.75V7.5C3 6.25736 4.00736 5.25 5.25 5.25H18.75C19.9926 5.25 21 6.25736 21 7.5V18.75M3 18.75C3 19.9926 4.00736 21 5.25 21H18.75C19.9926 21 21 19.9926 21 18.75M3 18.75V11.25C3 10.0074 4.00736 9 5.25 9H18.75C19.9926 9 21 10.0074 21 11.25V18.75M12 12.75H12.0075V12.7575H12V12.75ZM12 15H12.0075V15.0075H12V15ZM12 17.25H12.0075V17.2575H12V17.25ZM9.75 15H9.7575V15.0075H9.75V15ZM9.75 17.25H9.7575V17.2575H9.75V17.25ZM7.5 15H7.5075V15.0075H7.5V15ZM7.5 17.25H7.5075V17.2575H7.5V17.25ZM14.25 12.75H14.2575V12.7575H14.25V12.75ZM14.25 15H14.2575V15.0075H14.25V15ZM14.25 17.25H14.2575V17.2575H14.25V17.25ZM16.5 12.75H16.5075V12.7575H16.5V12.75ZM16.5 15H16.5075V15.0075H16.5V15Z" stroke-width="1.5" stroke-linecap="round" stroke-linejoin="round"></path>
  </symbol>
  <symbol fill="none"  viewBox="0 0 24 24" id="chart">
    <path d="M3 13.125C3 12.5037 3.50368 12 4.125 12H6.375C6.99632 12 7.5 12.5037 7.5 13.125V19.875C7.5 20.4963 6.99632 21 6.375 21H4.125C3.50368 21 3 20.4963 3 19.875V13.125Z" stroke-width="1.5" stroke-linecap="round" stroke-linejoin="round"></path>
    <path d="M9.75 8.625C9.75 8.00368 10.2537 7.5 10.875 7.5H13.125C13.7463 7.5 14.25 8.00368 14.25 8.625V19.875C14.25 20.4963 13.7463 21 13.125 21H10.875C10.2537 21 9.75 20.4963 9.75 19.875V8.625Z" stroke-width="1.5" stroke-linecap="round" stroke-linejoin="round"></path>
    <path d="M16.5 4.125C16.5 3.50368 17.0037 3 17.625 3H19.875C20.4963 3 21 3.50368 21 4.125V19.875C21 20.4963 20.4963 21 19.875 21H17.625C17.0037 21 16.5 20.4963 16.5 19.875V4.125Z" stroke-width="1.5" stroke-linecap="round" stroke-linejoin="round"></path>
  </symbol>
  <symbol fill="none"  viewBox="0 0 24 24" id="chat">
    <path d="M7.5 8.25H16.5M7.5 11.25H12M2.25 12.7593C2.25 14.3604 3.37341 15.754 4.95746 15.987C6.08596 16.1529 7.22724 16.2796 8.37985 16.3655C8.73004 16.3916 9.05017 16.5753 9.24496 16.8674L12 21L14.755 16.8675C14.9498 16.5753 15.2699 16.3917 15.6201 16.3656C16.7727 16.2796 17.914 16.153 19.0425 15.9871C20.6266 15.7542 21.75 14.3606 21.75 12.7595V6.74056C21.75 5.13946 20.6266 3.74583 19.0425 3.51293C16.744 3.17501 14.3926 3 12.0003 3C9.60776 3 7.25612 3.17504 4.95747 3.51302C3.37342 3.74593 2.25 5.13956 2.25 6.74064V12.7593Z" stroke-width="1.5" stroke-linecap="round" stroke-linejoin="round"></path>
  </symbol>
  <symbol fill="none"  viewBox="0 0 24 24" id="settings">
    <path d="M9.59356 3.94014C9.68397 3.39768 10.1533 3.00009 10.7033 3.00009H13.2972C13.8472 3.00009 14.3165 3.39768 14.4069 3.94014L14.6204 5.22119C14.6828 5.59523 14.9327 5.9068 15.2645 6.09045C15.3387 6.13151 15.412 6.17393 15.4844 6.21766C15.8095 6.41393 16.2048 6.47495 16.5604 6.34175L17.7772 5.88587C18.2922 5.69293 18.8712 5.9006 19.1462 6.37687L20.4432 8.6233C20.7181 9.09957 20.6085 9.70482 20.1839 10.0544L19.1795 10.8812C18.887 11.122 18.742 11.4938 18.7491 11.8726C18.7498 11.915 18.7502 11.9575 18.7502 12.0001C18.7502 12.0427 18.7498 12.0852 18.7491 12.1275C18.742 12.5064 18.887 12.8782 19.1795 13.119L20.1839 13.9458C20.6085 14.2953 20.7181 14.9006 20.4432 15.3769L19.1462 17.6233C18.8712 18.0996 18.2922 18.3072 17.7772 18.1143L16.5604 17.6584C16.2048 17.5252 15.8095 17.5862 15.4844 17.7825C15.412 17.8263 15.3387 17.8687 15.2645 17.9097C14.9327 18.0934 14.6828 18.4049 14.6204 18.779L14.4069 20.06C14.3165 20.6025 13.8472 21.0001 13.2972 21.0001H10.7033C10.1533 21.0001 9.68397 20.6025 9.59356 20.06L9.38005 18.779C9.31771 18.4049 9.06774 18.0934 8.73597 17.9097C8.66179 17.8687 8.58847 17.8263 8.51604 17.7825C8.19101 17.5863 7.79568 17.5252 7.44011 17.6584L6.22325 18.1143C5.70826 18.3072 5.12926 18.0996 4.85429 17.6233L3.55731 15.3769C3.28234 14.9006 3.39199 14.2954 3.81657 13.9458L4.82092 13.119C5.11343 12.8782 5.25843 12.5064 5.25141 12.1276C5.25063 12.0852 5.25023 12.0427 5.25023 12.0001C5.25023 11.9575 5.25063 11.915 5.25141 11.8726C5.25843 11.4938 5.11343 11.122 4.82092 10.8812L3.81657 10.0544C3.39199 9.70484 3.28234 9.09958 3.55731 8.62332L4.85429 6.37688C5.12926 5.90061 5.70825 5.69295 6.22325 5.88588L7.4401 6.34176C7.79566 6.47496 8.19099 6.41394 8.51603 6.21767C8.58846 6.17393 8.66179 6.13151 8.73597 6.09045C9.06774 5.9068 9.31771 5.59523 9.38005 5.22119L9.59356 3.94014Z" stroke-width="1.5" stroke-linecap="round" stroke-linejoin="round"></path>
    <path d="M15 12C15 13.6569 13.6569 15 12 15C10.3431 15 9 13.6569 9 12C9 10.3432 10.3431 9.00001 12 9.00001C13.6569 9.00001 15 10.3432 15 12Z" stroke-width="1.5" stroke-linecap="round" stroke-linejoin="round"></path>
  </symbol>
  <symbol fill="none"  viewBox="0 0 24 24" id="folder">
    <path d="M2.25 12.75V12C2.25 10.7574 3.25736 9.75 4.5 9.75H19.5C20.7426 9.75 21.75 10.7574 21.75 12V12.75M13.0607 6.31066L10.9393 4.18934C10.658 3.90804 10.2765 3.75 9.87868 3.75H4.5C3.25736 3.75 2.25 4.75736 2.25 6V18C2.25 19.2426 3.25736 20.25 4.5 20.25H19.5C20.7426 20.25 21.75 19.2426 21.75 18V9C21.75 7.75736 20.7426 6.75 19.5 6.75H14.1213C13.7235 6.75 13.342 6.59197 13.0607 6.31066Z" stroke-width="1.5" stroke-linecap="round" stroke-linejoin="round"></path>
  </symbol>
  <symbol fill="none"  viewBox="0 0 24 24" id="home">
    <path d="M2.25 12L11.2045 3.04549C11.6438 2.60615 12.3562 2.60615 12.7955 3.04549L21.75 12M4.5 9.75V19.875C4.5 20.4963 5.00368 21 5.625 21H9.75V16.125C9.75 15.5037 10.2537 15 10.875 15H13.125C13.7463 15 14.25 15.5037 14.25 16.125V21H18.375C18.9963 21 19.5 20.4963 19.5 19.875V9.75M8.25 21H16.5" stroke-width="1.5" stroke-linecap="round" stroke-linejoin="round"></path>
  </symbol>
  <symbol fill="none"  viewBox="0 0 24 24" id="arrow-long-left">
    <path d="M6.75 15.75L3 12M3 12L6.75 8.25M3 12H21" stroke-width="1.5" stroke-linecap="round" stroke-linejoin="round"></path>
  </symbol>
  <symbol fill="none"  viewBox="0 0 24 24" id="arrow-long-right">
    <path d="M17.25 8.25L21 12M21 12L17.25 15.75M21 12H3" stroke-width="1.5" stroke-linecap="round" stroke-linejoin="round"></path>
  </symbol>
  <symbol fill="none" viewBox="0 0 24 24" id="search">
    <path d="M21 21L15.8033 15.8033M15.8033 15.8033C17.1605 14.4461 18 12.5711 18 10.5C18 6.35786 14.6421 3 10.5 3C6.35786 3 3 6.35786 3 10.5C3 14.6421 6.35786 18 10.5 18C12.5711 18 14.4461 17.1605 15.8033 15.8033Z" stroke-width="1.5" stroke-linecap="round" stroke-linejoin="round"></path>
  </symbol>
  <symbol fill="none" viewBox="0 0 24 24" id="pause">
    <path d="M15.75 5.25L15.75 18.75M8.25 5.25V18.75" stroke-width="1.5" stroke-linecap="round" stroke-linejoin="round"></path>
  </symbol>
  <symbol fill="none" viewBox="0 0 24 24" id="play">
    <path d="M5.25 5.65273C5.25 4.79705 6.1674 4.25462 6.91716 4.66698L18.4577 11.0143C19.2349 11.4417 19.2349 12.5584 18.4577 12.9858L6.91716 19.3331C6.1674 19.7455 5.25 19.203 5.25 18.3474V5.65273Z" stroke-width="1.5" stroke-linecap="round" stroke-linejoin="round"></path>
  </symbol>
  <symbol fill="none" viewBox="0 0 24 24" id="full">
    <path d="M7.5 3.75H6C4.75736 3.75 3.75 4.75736 3.75 6V7.5M16.5 3.75H18C19.2426 3.75 20.25 4.75736 20.25 6V7.5M20.25 16.5V18C20.25 19.2426 19.2426 20.25 18 20.25H16.5M7.5 20.25H6C4.75736 20.25 3.75 19.2426 3.75 18V16.5" stroke-width="1.5" stroke-linecap="round" stroke-linejoin="round"></path>
  </symbol>
  <symbol fill="none" viewBox="0 0 24 24" id="close">
    <path d="M6 18L18 6M6 6L18 18" stroke-width="1.5" stroke-linecap="round" stroke-linejoin="round"></path>
  </symbol>
</svg>